<?xml version="1.0" encoding="utf-8"?>
<!-- Generator: Adobe Illustrator 24.1.2, SVG Export Plug-In . SVG Version: 6.00 Build 0)  -->
<svg version="1.1" id="레이어_1" xmlns="http://www.w3.org/2000/svg" xmlns:xlink="http://www.w3.org/1999/xlink" x="0px"
	 y="0px" viewBox="0 0 336.56 131.56" style="enable-background:new 0 0 336.56 131.56;" xml:space="preserve">
<style type="text/css">
	.st0{fill:#00A0E9;}
	.st1{fill:#00348C;}
</style>
<g>
	<path class="st0" d="M37.6,47.56c-3.14,0-5.74,0.79-7.71,2.34c-2.06,1.63-3.11,3.85-3.11,6.6v11.37h7.58V57.7
		c0.02-0.84,0.26-1.46,0.74-1.89c0.49-0.46,1.1-0.67,1.83-0.67h28.17v-7.58H37.6z"/>
	<path class="st1" d="M57.54,70.86c-0.03,0.85-0.27,1.46-0.74,1.89c-0.5,0.45-1.1,0.67-1.84,0.67H26.79V81H54.3
		c3.15,0,5.74-0.79,7.71-2.34c2.06-1.62,3.1-3.85,3.1-6.6V60.68h-7.57V70.86z"/>
</g>
<path class="st1" d="M91.97,49.29H75.55v29.99h16.43c3.26,0,5.64-0.72,7.06-2.15c1.4-1.41,2.11-3.36,2.11-5.82V57.46
	c0-2.56-0.71-4.58-2.11-6C97.61,50.02,95.23,49.29,91.97,49.29z M82.68,53.64h7.45c1.39,0,2.39,0.31,2.97,0.92
	c0.42,0.44,0.92,1.47,0.92,3.83v11.98c0,1.58-0.31,2.76-0.94,3.5c-0.59,0.7-1.55,1.05-2.95,1.05h-7.45V53.64z"/>
<path class="st1" d="M110.81,49.29l-8.61,29.99h7.12l1.67-6.34h9.88l1.61,6.34h7.4l-8.25-29.99H110.81z M120.06,68.63h-8.18
	l4.3-15.36L120.06,68.63z"/>
<polygon class="st1" points="150.39,49.29 126.69,49.29 126.69,54.57 134.97,54.57 134.97,79.28 142.11,79.28 142.11,54.57 
	150.39,54.57 "/>
<path class="st1" d="M155.8,49.29l-8.61,29.99h7.12l1.67-6.34h9.88l1.61,6.34h7.4l-8.25-29.99H155.8z M165.05,68.63h-8.18l4.3-15.36
	L165.05,68.63z"/>
<path class="st1" d="M192.73,67.42c-0.6-0.51-1.38-0.87-2.32-1.08c-0.89-0.2-2-0.29-3.31-0.29h-3.09c-0.73,0-1.33-0.04-1.79-0.11
	c-0.37-0.06-0.65-0.17-0.83-0.33c-0.19-0.17-0.32-0.42-0.4-0.74c-0.09-0.39-0.14-0.92-0.14-1.58c0-0.64,0.07-1.16,0.21-1.53
	c0.12-0.32,0.29-0.56,0.5-0.7c0.24-0.15,0.55-0.26,0.92-0.31c0.43-0.06,0.95-0.09,1.53-0.09h9.07V57.4h-10.17
	c-2.63,0-4.52,0.57-5.62,1.69c-1.09,1.11-1.64,2.66-1.64,4.61c0,1.12,0.11,2.08,0.33,2.87c0.23,0.83,0.61,1.52,1.15,2.04
	c0.53,0.53,1.23,0.92,2.07,1.15c0.8,0.23,1.78,0.34,2.92,0.34h3.31c0.88,0,1.61,0.04,2.15,0.11c0.47,0.06,0.82,0.18,1.05,0.36
	c0.22,0.17,0.36,0.41,0.44,0.73c0.09,0.4,0.14,0.95,0.14,1.64c0,0.8-0.07,1.42-0.22,1.84c-0.13,0.37-0.32,0.65-0.56,0.82
	c-0.26,0.18-0.57,0.29-0.97,0.33c-0.46,0.05-0.99,0.07-1.59,0.07h-9.43v3.27h10.31c2.73,0,4.72-0.56,5.89-1.67
	c1.17-1.11,1.77-2.83,1.77-5.11c0-1.19-0.13-2.21-0.37-3.01C193.78,68.63,193.34,67.94,192.73,67.42z"/>
<path class="st1" d="M214.05,59.01c-0.58-0.58-1.36-1-2.31-1.25c-0.9-0.24-2.05-0.36-3.42-0.36h-4.82c-1.37,0-2.52,0.12-3.42,0.36
	c-0.95,0.25-1.72,0.67-2.31,1.25c-0.58,0.58-0.98,1.33-1.19,2.23c-0.2,0.84-0.3,1.88-0.3,3.06v8.08c0,1.21,0.1,2.25,0.3,3.08
	c0.21,0.89,0.61,1.63,1.19,2.21c0.58,0.58,1.36,1,2.31,1.25c0.9,0.24,2.05,0.36,3.42,0.36h4.82c1.37,0,2.52-0.12,3.42-0.36
	c0.95-0.25,1.73-0.67,2.31-1.25c0.58-0.58,0.98-1.32,1.19-2.21c0.2-0.84,0.3-1.87,0.3-3.08V64.3c0-1.18-0.1-2.21-0.3-3.06
	C215.03,60.34,214.63,59.59,214.05,59.01z M201.88,64.15c0-0.8,0.05-1.45,0.15-1.94c0.08-0.44,0.23-0.77,0.43-0.98
	c0.19-0.2,0.46-0.34,0.83-0.42c0.45-0.09,1.05-0.14,1.8-0.14h1.65c0.75,0,1.36,0.04,1.8,0.14c0.37,0.08,0.64,0.21,0.83,0.42
	c0.2,0.22,0.34,0.55,0.43,0.98c0.1,0.5,0.15,1.15,0.15,1.94v8.39c0,0.79-0.05,1.44-0.15,1.94c-0.08,0.44-0.23,0.77-0.43,0.99
	c-0.19,0.2-0.46,0.34-0.83,0.42c-0.45,0.09-1.05,0.14-1.8,0.14h-1.65c-0.75,0-1.36-0.05-1.8-0.14c-0.37-0.08-0.64-0.21-0.83-0.42
	c-0.2-0.22-0.35-0.55-0.43-0.99c-0.1-0.49-0.15-1.14-0.15-1.94V64.15z"/>
<path class="st1" d="M240.59,76.01h-5.24c-0.75,0-1.36-0.05-1.8-0.14c-0.37-0.08-0.64-0.21-0.83-0.42c-0.2-0.22-0.35-0.55-0.43-0.98
	c-0.1-0.49-0.15-1.14-0.15-1.94V57.4h-5.6v14.98c0,1.21,0.1,2.24,0.3,3.08c0.21,0.89,0.61,1.63,1.19,2.21
	c0.58,0.58,1.36,1,2.31,1.25c0.9,0.24,2.05,0.36,3.42,0.36h12.43V57.4h-5.6V76.01z"/>
<rect x="218.34" y="52.39" class="st1" width="5.6" height="26.88"/>
<g>
	<rect x="262.81" y="52.38" class="st1" width="5.6" height="4.53"/>
	<rect x="262.81" y="58.79" class="st1" width="5.6" height="20.48"/>
</g>
<path class="st1" d="M288.77,59.01c-0.58-0.58-1.36-1-2.31-1.25c-0.9-0.24-2.05-0.36-3.42-0.36h-4.83c-1.37,0-2.52,0.12-3.42,0.36
	c-0.95,0.25-1.72,0.67-2.31,1.25c-0.58,0.58-0.98,1.33-1.19,2.23c-0.2,0.85-0.3,1.85-0.3,3.06v8.08c0,1.21,0.1,2.25,0.3,3.08
	c0.21,0.89,0.61,1.63,1.19,2.21c0.58,0.58,1.36,1,2.31,1.25c0.9,0.24,2.05,0.36,3.42,0.36h4.83c1.37,0,2.52-0.12,3.42-0.36
	c0.95-0.25,1.73-0.67,2.31-1.25c0.58-0.58,0.98-1.32,1.19-2.21c0.2-0.83,0.3-1.87,0.3-3.08V64.3c0-1.19-0.1-2.22-0.3-3.06
	C289.75,60.34,289.35,59.59,288.77,59.01z M276.6,64.15c0-0.8,0.05-1.45,0.15-1.94c0.08-0.43,0.23-0.77,0.43-0.98
	c0.19-0.2,0.46-0.34,0.83-0.42c0.45-0.09,1.05-0.14,1.8-0.14h1.64c0.75,0,1.36,0.04,1.8,0.14c0.37,0.08,0.64,0.21,0.83,0.42
	c0.2,0.22,0.35,0.55,0.43,0.99c0.1,0.49,0.15,1.14,0.15,1.94v8.39c0,0.79-0.05,1.45-0.15,1.94c-0.08,0.44-0.23,0.77-0.43,0.99
	c-0.19,0.2-0.46,0.34-0.83,0.42c-0.44,0.09-1.05,0.14-1.8,0.14h-1.64c-0.75,0-1.36-0.05-1.8-0.14c-0.37-0.08-0.64-0.21-0.83-0.42
	c-0.2-0.22-0.34-0.55-0.43-0.99c-0.1-0.49-0.15-1.14-0.15-1.94V64.15z"/>
<path class="st1" d="M311.1,61.24c-0.21-0.9-0.61-1.65-1.19-2.23c-0.58-0.58-1.36-1-2.31-1.25c-0.9-0.24-2.05-0.36-3.42-0.36h-11.56
	v21.88h5.6V60.67h4.37c0.75,0,1.36,0.04,1.8,0.14c0.37,0.08,0.64,0.21,0.83,0.42c0.2,0.22,0.34,0.55,0.43,0.98
	c0.1,0.5,0.15,1.15,0.15,1.94v15.13h5.6V64.3C311.4,63.12,311.3,62.09,311.1,61.24z"/>
<path class="st1" d="M255.4,75.62c-0.17-0.17-0.46-0.68-0.46-2.06v-13h5.74v-3.21h-5.74v-5h-5.6v21.47c0,0.76,0.1,1.47,0.31,2.12
	c0.21,0.67,0.56,1.27,1.04,1.76c0.49,0.5,1.14,0.9,1.94,1.17c0.78,0.27,1.75,0.4,2.87,0.4h5.18v-3.21h-3.37
	C256.09,76.06,255.6,75.82,255.4,75.62z"/>
</svg>
